<mxfile host="app.diagrams.net" modified="2023-01-17T01:46:46.304Z" agent="5.0 (Macintosh; Intel Mac OS X 10_15_7) AppleWebKit/537.36 (KHTML, like Gecko) Chrome/108.0.0.0 Safari/537.36" etag="UbSRE1DmapjnqQZzu20e" version="20.8.5" type="github">
  <diagram id="-eb4LQwlrD8UFc-6L_qy" name="第 1 页">
    <mxGraphModel dx="1306" dy="836" grid="1" gridSize="10" guides="1" tooltips="1" connect="1" arrows="1" fold="1" page="1" pageScale="1" pageWidth="2339" pageHeight="3300" math="0" shadow="0">
      <root>
        <mxCell id="0" />
        <mxCell id="1" parent="0" />
        <mxCell id="VePQO4WAWn7TVc4N_yha-11" style="edgeStyle=orthogonalEdgeStyle;rounded=1;orthogonalLoop=1;jettySize=auto;html=1;exitX=0.5;exitY=1;exitDx=0;exitDy=0;exitPerimeter=0;entryX=0;entryY=0.5;entryDx=0;entryDy=0;" parent="1" source="VePQO4WAWn7TVc4N_yha-1" target="VePQO4WAWn7TVc4N_yha-10" edge="1">
          <mxGeometry relative="1" as="geometry" />
        </mxCell>
        <mxCell id="VePQO4WAWn7TVc4N_yha-1" value="广告池" style="shape=cylinder3;whiteSpace=wrap;html=1;boundedLbl=1;backgroundOutline=1;size=15;" parent="1" vertex="1">
          <mxGeometry x="340" y="195" width="60" height="80" as="geometry" />
        </mxCell>
        <mxCell id="VePQO4WAWn7TVc4N_yha-5" style="edgeStyle=orthogonalEdgeStyle;rounded=0;orthogonalLoop=1;jettySize=auto;html=1;exitX=1;exitY=0.5;exitDx=0;exitDy=0;" parent="1" source="VePQO4WAWn7TVc4N_yha-2" target="VePQO4WAWn7TVc4N_yha-3" edge="1">
          <mxGeometry relative="1" as="geometry" />
        </mxCell>
        <mxCell id="VePQO4WAWn7TVc4N_yha-2" value="投放平台" style="rounded=0;whiteSpace=wrap;html=1;" parent="1" vertex="1">
          <mxGeometry x="80" y="210" width="90" height="50" as="geometry" />
        </mxCell>
        <mxCell id="VePQO4WAWn7TVc4N_yha-4" style="edgeStyle=orthogonalEdgeStyle;rounded=0;orthogonalLoop=1;jettySize=auto;html=1;exitX=1;exitY=0.5;exitDx=0;exitDy=0;entryX=0;entryY=0.5;entryDx=0;entryDy=0;entryPerimeter=0;" parent="1" source="VePQO4WAWn7TVc4N_yha-3" target="VePQO4WAWn7TVc4N_yha-1" edge="1">
          <mxGeometry relative="1" as="geometry" />
        </mxCell>
        <mxCell id="VePQO4WAWn7TVc4N_yha-3" value="广告审核" style="rounded=0;whiteSpace=wrap;html=1;" parent="1" vertex="1">
          <mxGeometry x="200" y="210" width="90" height="50" as="geometry" />
        </mxCell>
        <mxCell id="VePQO4WAWn7TVc4N_yha-6" value="" style="rounded=1;whiteSpace=wrap;html=1;" parent="1" vertex="1">
          <mxGeometry x="440" y="160" width="220" height="360" as="geometry" />
        </mxCell>
        <mxCell id="VePQO4WAWn7TVc4N_yha-45" style="edgeStyle=orthogonalEdgeStyle;rounded=1;orthogonalLoop=1;jettySize=auto;html=1;exitX=1;exitY=0.5;exitDx=0;exitDy=0;exitPerimeter=0;" parent="1" source="VePQO4WAWn7TVc4N_yha-7" target="VePQO4WAWn7TVc4N_yha-20" edge="1">
          <mxGeometry relative="1" as="geometry" />
        </mxCell>
        <mxCell id="VePQO4WAWn7TVc4N_yha-7" value="index" style="shape=cylinder3;whiteSpace=wrap;html=1;boundedLbl=1;backgroundOutline=1;size=15;" parent="1" vertex="1">
          <mxGeometry x="580" y="200" width="60" height="85" as="geometry" />
        </mxCell>
        <mxCell id="VePQO4WAWn7TVc4N_yha-8" value="fully build" style="rounded=0;whiteSpace=wrap;html=1;" parent="1" vertex="1">
          <mxGeometry x="470" y="200" width="90" height="50" as="geometry" />
        </mxCell>
        <mxCell id="VePQO4WAWn7TVc4N_yha-9" value="incremental build" style="rounded=0;whiteSpace=wrap;html=1;" parent="1" vertex="1">
          <mxGeometry x="470" y="280" width="100" height="60" as="geometry" />
        </mxCell>
        <mxCell id="VePQO4WAWn7TVc4N_yha-12" style="edgeStyle=orthogonalEdgeStyle;rounded=1;orthogonalLoop=1;jettySize=auto;html=1;exitX=1;exitY=0.5;exitDx=0;exitDy=0;entryX=0;entryY=0.5;entryDx=0;entryDy=0;" parent="1" source="VePQO4WAWn7TVc4N_yha-10" target="VePQO4WAWn7TVc4N_yha-9" edge="1">
          <mxGeometry relative="1" as="geometry" />
        </mxCell>
        <mxCell id="VePQO4WAWn7TVc4N_yha-10" value="ads trigger" style="shape=process;whiteSpace=wrap;html=1;backgroundOutline=1;" parent="1" vertex="1">
          <mxGeometry x="270" y="310" width="120" height="60" as="geometry" />
        </mxCell>
        <mxCell id="VePQO4WAWn7TVc4N_yha-13" style="edgeStyle=orthogonalEdgeStyle;rounded=1;orthogonalLoop=1;jettySize=auto;html=1;exitX=1;exitY=0.5;exitDx=0;exitDy=0;exitPerimeter=0;entryX=0;entryY=0.5;entryDx=0;entryDy=0;" parent="1" source="VePQO4WAWn7TVc4N_yha-1" target="VePQO4WAWn7TVc4N_yha-8" edge="1">
          <mxGeometry relative="1" as="geometry" />
        </mxCell>
        <mxCell id="VePQO4WAWn7TVc4N_yha-14" value="运营配置/黑明单等" style="rounded=0;whiteSpace=wrap;html=1;" parent="1" vertex="1">
          <mxGeometry x="270" y="390" width="120" height="50" as="geometry" />
        </mxCell>
        <mxCell id="VePQO4WAWn7TVc4N_yha-17" value="离线计算打分" style="rounded=0;whiteSpace=wrap;html=1;" parent="1" vertex="1">
          <mxGeometry x="270" y="450" width="120" height="60" as="geometry" />
        </mxCell>
        <mxCell id="VePQO4WAWn7TVc4N_yha-19" value="indexer/search&amp;nbsp;" style="text;html=1;strokeColor=none;fillColor=none;align=center;verticalAlign=middle;whiteSpace=wrap;rounded=0;" parent="1" vertex="1">
          <mxGeometry x="480" y="130" width="140" height="30" as="geometry" />
        </mxCell>
        <mxCell id="VePQO4WAWn7TVc4N_yha-20" value="" style="rounded=1;whiteSpace=wrap;html=1;" parent="1" vertex="1">
          <mxGeometry x="770" y="40" width="220" height="340" as="geometry" />
        </mxCell>
        <mxCell id="VePQO4WAWn7TVc4N_yha-21" value="recall" style="text;html=1;strokeColor=none;fillColor=none;align=center;verticalAlign=middle;whiteSpace=wrap;rounded=0;" parent="1" vertex="1">
          <mxGeometry x="830" y="10" width="100" height="30" as="geometry" />
        </mxCell>
        <mxCell id="VePQO4WAWn7TVc4N_yha-22" value="query 处理+query理解" style="rounded=0;whiteSpace=wrap;html=1;" parent="1" vertex="1">
          <mxGeometry x="803.75" y="60" width="155" height="40" as="geometry" />
        </mxCell>
        <mxCell id="VePQO4WAWn7TVc4N_yha-24" value="user/feature 标签召回" style="rounded=0;whiteSpace=wrap;html=1;" parent="1" vertex="1">
          <mxGeometry x="803.75" y="107.5" width="155" height="50" as="geometry" />
        </mxCell>
        <mxCell id="VePQO4WAWn7TVc4N_yha-25" value="向量召回" style="rounded=0;whiteSpace=wrap;html=1;" parent="1" vertex="1">
          <mxGeometry x="803.75" y="170" width="156.25" height="40" as="geometry" />
        </mxCell>
        <mxCell id="VePQO4WAWn7TVc4N_yha-27" value="ads merge,去重" style="rounded=0;whiteSpace=wrap;html=1;" parent="1" vertex="1">
          <mxGeometry x="800" y="220" width="160" height="40" as="geometry" />
        </mxCell>
        <mxCell id="VePQO4WAWn7TVc4N_yha-28" value="lite model score，top K" style="rounded=0;whiteSpace=wrap;html=1;" parent="1" vertex="1">
          <mxGeometry x="800" y="270" width="158.75" height="50" as="geometry" />
        </mxCell>
        <mxCell id="VePQO4WAWn7TVc4N_yha-29" value="" style="rounded=1;whiteSpace=wrap;html=1;" parent="1" vertex="1">
          <mxGeometry x="1210" y="150" width="180" height="352" as="geometry" />
        </mxCell>
        <mxCell id="VePQO4WAWn7TVc4N_yha-30" value="mixter/reranker" style="text;html=1;strokeColor=none;fillColor=none;align=center;verticalAlign=middle;whiteSpace=wrap;rounded=0;" parent="1" vertex="1">
          <mxGeometry x="1270" y="120" width="60" height="30" as="geometry" />
        </mxCell>
        <mxCell id="2NZhz5EfFurKNDNoINR--14" style="edgeStyle=orthogonalEdgeStyle;rounded=1;orthogonalLoop=1;jettySize=auto;html=1;exitX=0;exitY=0.5;exitDx=0;exitDy=0;entryX=1;entryY=0.5;entryDx=0;entryDy=0;" edge="1" parent="1" source="VePQO4WAWn7TVc4N_yha-31" target="VePQO4WAWn7TVc4N_yha-20">
          <mxGeometry relative="1" as="geometry" />
        </mxCell>
        <mxCell id="VePQO4WAWn7TVc4N_yha-31" value="获取广告列表" style="rounded=0;whiteSpace=wrap;html=1;" parent="1" vertex="1">
          <mxGeometry x="1240" y="270" width="120" height="50" as="geometry" />
        </mxCell>
        <mxCell id="VePQO4WAWn7TVc4N_yha-34" value="adinfo、adprofile" style="rounded=0;whiteSpace=wrap;html=1;" parent="1" vertex="1">
          <mxGeometry x="1045" y="560" width="125" height="32.5" as="geometry" />
        </mxCell>
        <mxCell id="VePQO4WAWn7TVc4N_yha-36" value="smart-bidding" style="rounded=0;whiteSpace=wrap;html=1;fillColor=#fff2cc;strokeColor=#d6b656;" parent="1" vertex="1">
          <mxGeometry x="1240" y="370" width="120" height="50" as="geometry" />
        </mxCell>
        <mxCell id="VePQO4WAWn7TVc4N_yha-37" value="adbus&lt;br&gt;实时数据" style="shape=process;whiteSpace=wrap;html=1;backgroundOutline=1;" parent="1" vertex="1">
          <mxGeometry x="990" y="670" width="110" height="60" as="geometry" />
        </mxCell>
        <mxCell id="VePQO4WAWn7TVc4N_yha-42" value="数据处理平台" style="rounded=1;whiteSpace=wrap;html=1;" parent="1" vertex="1">
          <mxGeometry x="1230" y="650" width="120" height="60" as="geometry" />
        </mxCell>
        <mxCell id="2NZhz5EfFurKNDNoINR--1" value="userinfo、userprofile" style="rounded=0;whiteSpace=wrap;html=1;" vertex="1" parent="1">
          <mxGeometry x="870" y="560" width="125" height="35" as="geometry" />
        </mxCell>
        <mxCell id="2NZhz5EfFurKNDNoINR--7" style="edgeStyle=orthogonalEdgeStyle;rounded=1;orthogonalLoop=1;jettySize=auto;html=1;exitX=0;exitY=0.5;exitDx=0;exitDy=0;entryX=1;entryY=0.25;entryDx=0;entryDy=0;" edge="1" parent="1" source="2NZhz5EfFurKNDNoINR--3" target="VePQO4WAWn7TVc4N_yha-29">
          <mxGeometry relative="1" as="geometry" />
        </mxCell>
        <mxCell id="2NZhz5EfFurKNDNoINR--3" value="" style="rounded=1;whiteSpace=wrap;html=1;" vertex="1" parent="1">
          <mxGeometry x="1480" y="150" width="160" height="350" as="geometry" />
        </mxCell>
        <mxCell id="2NZhz5EfFurKNDNoINR--4" value="adproxy" style="text;html=1;strokeColor=none;fillColor=none;align=center;verticalAlign=middle;whiteSpace=wrap;rounded=0;" vertex="1" parent="1">
          <mxGeometry x="1530" y="119" width="60" height="30" as="geometry" />
        </mxCell>
        <mxCell id="2NZhz5EfFurKNDNoINR--5" value="系统限流保护" style="rounded=0;whiteSpace=wrap;html=1;" vertex="1" parent="1">
          <mxGeometry x="1500" y="195" width="120" height="50" as="geometry" />
        </mxCell>
        <mxCell id="2NZhz5EfFurKNDNoINR--8" value="广告拉取上报" style="rounded=0;whiteSpace=wrap;html=1;fillColor=#fff2cc;strokeColor=#d6b656;" vertex="1" parent="1">
          <mxGeometry x="1500" y="262.5" width="120" height="50" as="geometry" />
        </mxCell>
        <mxCell id="2NZhz5EfFurKNDNoINR--10" value="系统限流" style="rounded=0;whiteSpace=wrap;html=1;" vertex="1" parent="1">
          <mxGeometry x="1500" y="328" width="120" height="50" as="geometry" />
        </mxCell>
        <mxCell id="2NZhz5EfFurKNDNoINR--15" style="edgeStyle=orthogonalEdgeStyle;rounded=1;orthogonalLoop=1;jettySize=auto;html=1;exitX=0.5;exitY=1;exitDx=0;exitDy=0;" edge="1" parent="1" source="2NZhz5EfFurKNDNoINR--11" target="2NZhz5EfFurKNDNoINR--13">
          <mxGeometry relative="1" as="geometry" />
        </mxCell>
        <mxCell id="2NZhz5EfFurKNDNoINR--11" value="获取用户画像" style="rounded=0;whiteSpace=wrap;html=1;" vertex="1" parent="1">
          <mxGeometry x="1240" y="160" width="120" height="40" as="geometry" />
        </mxCell>
        <mxCell id="2NZhz5EfFurKNDNoINR--13" value="获取实验信息" style="rounded=0;whiteSpace=wrap;html=1;" vertex="1" parent="1">
          <mxGeometry x="1240" y="220" width="120" height="40" as="geometry" />
        </mxCell>
      </root>
    </mxGraphModel>
  </diagram>
</mxfile>
